<?xml version="1.0" encoding="utf-8"?>
<!-- Generator: Adobe Illustrator 21.1.0, SVG Export Plug-In . SVG Version: 6.00 Build 0)  -->
<svg version="1.1" id="Layer_1" xmlns="http://www.w3.org/2000/svg" xmlns:xlink="http://www.w3.org/1999/xlink" x="0px" y="0px"
	 viewBox="0 0 1600 700" style="enable-background:new 0 0 1600 700;" xml:space="preserve">
<style type="text/css">
	.st0{fill:#F2F2F2;}
	.st1{clip-path:url(#SVGID_2_);}
	.st2{clip-path:url(#SVGID_4_);fill:#FF6400;}
	.st3{clip-path:url(#SVGID_6_);}
	.st4{clip-path:url(#SVGID_8_);fill:#FF6400;}
	.st5{clip-path:url(#SVGID_10_);}
	.st6{clip-path:url(#SVGID_12_);fill:#FF6400;}
	.st7{clip-path:url(#SVGID_14_);}
	.st8{clip-path:url(#SVGID_16_);fill:#FF6400;}
	.st9{clip-path:url(#SVGID_18_);}
	.st10{clip-path:url(#SVGID_20_);fill:#FF6400;}
	.st11{clip-path:url(#SVGID_22_);}
	.st12{clip-path:url(#SVGID_24_);fill:#FF6400;}
	.st13{clip-path:url(#SVGID_26_);}
	.st14{clip-path:url(#SVGID_28_);fill:#FF6400;}
	.st15{clip-path:url(#SVGID_30_);}
	.st16{clip-path:url(#SVGID_32_);fill:#FF6400;}
	.st17{clip-path:url(#SVGID_34_);}
	.st18{clip-path:url(#SVGID_36_);fill:#FF6400;}
	.st19{clip-path:url(#SVGID_38_);}
	.st20{clip-path:url(#SVGID_40_);fill:#FF6400;}
	.st21{clip-path:url(#SVGID_42_);}
	.st22{clip-path:url(#SVGID_44_);fill:#FF6400;}
	.st23{clip-path:url(#SVGID_46_);}
	.st24{clip-path:url(#SVGID_48_);fill:#FF6400;}
	.st25{clip-path:url(#SVGID_51_);}
	.st26{clip-path:url(#SVGID_52_);fill:#FF6403;}
	.st27{clip-path:url(#SVGID_55_);}
	.st28{clip-path:url(#SVGID_56_);fill:#FF6403;}
	.st29{clip-path:url(#SVGID_59_);}
	.st30{clip-path:url(#SVGID_60_);fill:#FF6403;}
	.st31{clip-path:url(#SVGID_64_);}
	.st32{clip-path:url(#SVGID_65_);}
	.st33{clip-path:url(#SVGID_66_);fill:#FF6403;}
</style>
<polyline class="st0" points="0,0 1600,0 1600,700 0,700 0,0 "/>
<g>
	<defs>
		<path id="SVGID_1_" d="M451.1-819.7c-3.2,0-5.7,2.6-5.7,5.7s2.6,5.7,5.7,5.7s5.7-2.6,5.7-5.7S454.2-819.7,451.1-819.7 M451.1-812
			c-1.1,0-1.9-0.9-1.9-1.9c0-1.1,0.9-1.9,1.9-1.9s1.9,0.9,1.9,1.9C453-812.9,452.1-812,451.1-812"/>
	</defs>
	<clipPath id="SVGID_2_">
		<use xlink:href="#SVGID_1_"  style="overflow:visible;"/>
	</clipPath>
	<g class="st1">
		<defs>
			<rect id="SVGID_3_" x="80" y="-1595" width="1440" height="3891"/>
		</defs>
		<clipPath id="SVGID_4_">
			<use xlink:href="#SVGID_3_"  style="overflow:visible;"/>
		</clipPath>
		<rect x="440.3" y="-824.7" class="st2" width="21.5" height="21.5"/>
	</g>
</g>
<g>
	<defs>
		<path id="SVGID_5_" d="M432.7-819.7c-3.2,0-5.7,2.6-5.7,5.7s2.6,5.7,5.7,5.7c3.2,0,5.7-2.6,5.7-5.7S435.8-819.7,432.7-819.7
			 M432.7-812c-1.1,0-1.9-0.9-1.9-1.9c0-1.1,0.9-1.9,1.9-1.9c1.1,0,1.9,0.9,1.9,1.9C434.6-812.9,433.7-812,432.7-812"/>
	</defs>
	<clipPath id="SVGID_6_">
		<use xlink:href="#SVGID_5_"  style="overflow:visible;"/>
	</clipPath>
	<g class="st3">
		<defs>
			<rect id="SVGID_7_" x="80" y="-1595" width="1440" height="3891"/>
		</defs>
		<clipPath id="SVGID_8_">
			<use xlink:href="#SVGID_7_"  style="overflow:visible;"/>
		</clipPath>
		<rect x="421.9" y="-824.7" class="st4" width="21.5" height="21.5"/>
	</g>
</g>
<g>
	<defs>
		<path id="SVGID_9_" d="M465.5-815.9c-1.1,0.1-1.9,1-1.8,2.1c0.1,1.1,1,1.9,2.1,1.8c1-0.1,1.8-0.9,1.8-2c0,0,0-0.1,0-0.1
			C467.5-815.1,466.5-815.9,465.5-815.9"/>
	</defs>
	<clipPath id="SVGID_10_">
		<use xlink:href="#SVGID_9_"  style="overflow:visible;"/>
	</clipPath>
	<g class="st5">
		<defs>
			<rect id="SVGID_11_" x="80" y="-1595" width="1440" height="3891"/>
		</defs>
		<clipPath id="SVGID_12_">
			<use xlink:href="#SVGID_11_"  style="overflow:visible;"/>
		</clipPath>
		<rect x="458.6" y="-820.9" class="st6" width="13.9" height="13.9"/>
	</g>
</g>
<g>
	<defs>
		<path id="SVGID_13_" d="M473.1-833h-51.7c-3,0-5.4,2.4-5.4,5.4v27.5c0,3,2.4,5.4,5.4,5.4h19.7v11.6h-1.7
			c-6.2,0-11.7,4.4-13.1,10.5c-0.1,0.6,0,1.2,0.4,1.6c0.4,0.5,0.9,0.7,1.5,0.7h38.3c0.6,0,1.1-0.3,1.5-0.7c0.4-0.5,0.5-1,0.4-1.6
			c-1.4-6.1-6.9-10.5-13.1-10.5h-1.6v-11.6h19.7c3,0,5.4-2.4,5.4-5.4v-27.5C478.5-830.6,476.1-833,473.1-833z M463.7-774.1h-32.8
			c1.7-3.1,5-5.2,8.6-5.2h15.7C458.7-779.3,462-777.2,463.7-774.1z M444.9-783.1h4.8v-11.6h-4.8V-783.1z M474.7-800.1
			c0,0.9-0.7,1.6-1.6,1.6h-51.7c-0.9,0-1.6-0.7-1.6-1.6v-27.5c0-0.9,0.7-1.6,1.6-1.6h51.7c0.9,0,1.6,0.7,1.6,1.6V-800.1z"/>
	</defs>
	<clipPath id="SVGID_14_">
		<use xlink:href="#SVGID_13_"  style="overflow:visible;"/>
	</clipPath>
	<g class="st7">
		<defs>
			<rect id="SVGID_15_" x="80" y="-1595" width="1440" height="3891"/>
		</defs>
		<clipPath id="SVGID_16_">
			<use xlink:href="#SVGID_15_"  style="overflow:visible;"/>
		</clipPath>
		<rect x="411" y="-838" class="st8" width="72.5" height="72.7"/>
	</g>
</g>
<g>
	<defs>
		<path id="SVGID_17_" d="M451.1-819.7c-3.2,0-5.7,2.6-5.7,5.7s2.6,5.7,5.7,5.7s5.7-2.6,5.7-5.7S454.2-819.7,451.1-819.7 M451.1-812
			c-1.1,0-1.9-0.9-1.9-1.9c0-1.1,0.9-1.9,1.9-1.9s1.9,0.9,1.9,1.9C453-812.9,452.1-812,451.1-812"/>
	</defs>
	<clipPath id="SVGID_18_">
		<use xlink:href="#SVGID_17_"  style="overflow:visible;"/>
	</clipPath>
	<g class="st9">
		<defs>
			<rect id="SVGID_19_" x="80" y="-1595" width="1440" height="3891"/>
		</defs>
		<clipPath id="SVGID_20_">
			<use xlink:href="#SVGID_19_"  style="overflow:visible;"/>
		</clipPath>
		<rect x="440.3" y="-824.7" class="st10" width="21.5" height="21.5"/>
	</g>
</g>
<g>
	<defs>
		<path id="SVGID_21_" d="M432.7-819.7c-3.2,0-5.7,2.6-5.7,5.7s2.6,5.7,5.7,5.7c3.2,0,5.7-2.6,5.7-5.7S435.8-819.7,432.7-819.7
			 M432.7-812c-1.1,0-1.9-0.9-1.9-1.9c0-1.1,0.9-1.9,1.9-1.9c1.1,0,1.9,0.9,1.9,1.9C434.6-812.9,433.7-812,432.7-812"/>
	</defs>
	<clipPath id="SVGID_22_">
		<use xlink:href="#SVGID_21_"  style="overflow:visible;"/>
	</clipPath>
	<g class="st11">
		<defs>
			<rect id="SVGID_23_" x="80" y="-1595" width="1440" height="3891"/>
		</defs>
		<clipPath id="SVGID_24_">
			<use xlink:href="#SVGID_23_"  style="overflow:visible;"/>
		</clipPath>
		<rect x="421.9" y="-824.7" class="st12" width="21.5" height="21.5"/>
	</g>
</g>
<g>
	<defs>
		<path id="SVGID_25_" d="M465.5-815.9c-1.1,0.1-1.9,1-1.8,2.1c0.1,1.1,1,1.9,2.1,1.8c1-0.1,1.8-0.9,1.8-2c0,0,0-0.1,0-0.1
			C467.5-815.1,466.5-815.9,465.5-815.9"/>
	</defs>
	<clipPath id="SVGID_26_">
		<use xlink:href="#SVGID_25_"  style="overflow:visible;"/>
	</clipPath>
	<g class="st13">
		<defs>
			<rect id="SVGID_27_" x="80" y="-1595" width="1440" height="3891"/>
		</defs>
		<clipPath id="SVGID_28_">
			<use xlink:href="#SVGID_27_"  style="overflow:visible;"/>
		</clipPath>
		<rect x="458.6" y="-820.9" class="st14" width="13.9" height="13.9"/>
	</g>
</g>
<g>
	<defs>
		<path id="SVGID_29_" d="M473.1-833h-51.7c-3,0-5.4,2.4-5.4,5.4v27.5c0,3,2.4,5.4,5.4,5.4h19.7v11.6h-1.7
			c-6.2,0-11.7,4.4-13.1,10.5c-0.1,0.6,0,1.2,0.4,1.6c0.4,0.5,0.9,0.7,1.5,0.7h38.3c0.6,0,1.1-0.3,1.5-0.7c0.4-0.5,0.5-1,0.4-1.6
			c-1.4-6.1-6.9-10.5-13.1-10.5h-1.6v-11.6h19.7c3,0,5.4-2.4,5.4-5.4v-27.5C478.5-830.6,476.1-833,473.1-833z M463.7-774.1h-32.8
			c1.7-3.1,5-5.2,8.6-5.2h15.7C458.7-779.3,462-777.2,463.7-774.1z M444.9-783.1h4.8v-11.6h-4.8V-783.1z M474.7-800.1
			c0,0.9-0.7,1.6-1.6,1.6h-51.7c-0.9,0-1.6-0.7-1.6-1.6v-27.5c0-0.9,0.7-1.6,1.6-1.6h51.7c0.9,0,1.6,0.7,1.6,1.6V-800.1z"/>
	</defs>
	<clipPath id="SVGID_30_">
		<use xlink:href="#SVGID_29_"  style="overflow:visible;"/>
	</clipPath>
	<g class="st15">
		<defs>
			<rect id="SVGID_31_" x="80" y="-1595" width="1440" height="3891"/>
		</defs>
		<clipPath id="SVGID_32_">
			<use xlink:href="#SVGID_31_"  style="overflow:visible;"/>
		</clipPath>
		<rect x="411" y="-838" class="st16" width="72.5" height="72.7"/>
	</g>
</g>
<g>
	<defs>
		<path id="SVGID_33_" d="M451.1-819.7c-3.2,0-5.7,2.6-5.7,5.7s2.6,5.7,5.7,5.7s5.7-2.6,5.7-5.7S454.2-819.7,451.1-819.7 M451.1-812
			c-1.1,0-1.9-0.9-1.9-1.9c0-1.1,0.9-1.9,1.9-1.9s1.9,0.9,1.9,1.9C453-812.9,452.1-812,451.1-812"/>
	</defs>
	<clipPath id="SVGID_34_">
		<use xlink:href="#SVGID_33_"  style="overflow:visible;"/>
	</clipPath>
	<g class="st17">
		<defs>
			<rect id="SVGID_35_" x="80" y="-1595" width="1440" height="3891"/>
		</defs>
		<clipPath id="SVGID_36_">
			<use xlink:href="#SVGID_35_"  style="overflow:visible;"/>
		</clipPath>
		<rect x="440.3" y="-824.7" class="st18" width="21.5" height="21.5"/>
	</g>
</g>
<g>
	<defs>
		<path id="SVGID_37_" d="M432.7-819.7c-3.2,0-5.7,2.6-5.7,5.7s2.6,5.7,5.7,5.7c3.2,0,5.7-2.6,5.7-5.7S435.8-819.7,432.7-819.7
			 M432.7-812c-1.1,0-1.9-0.9-1.9-1.9c0-1.1,0.9-1.9,1.9-1.9c1.1,0,1.9,0.9,1.9,1.9C434.6-812.9,433.7-812,432.7-812"/>
	</defs>
	<clipPath id="SVGID_38_">
		<use xlink:href="#SVGID_37_"  style="overflow:visible;"/>
	</clipPath>
	<g class="st19">
		<defs>
			<rect id="SVGID_39_" x="80" y="-1595" width="1440" height="3891"/>
		</defs>
		<clipPath id="SVGID_40_">
			<use xlink:href="#SVGID_39_"  style="overflow:visible;"/>
		</clipPath>
		<rect x="421.9" y="-824.7" class="st20" width="21.5" height="21.5"/>
	</g>
</g>
<g>
	<defs>
		<path id="SVGID_41_" d="M465.5-815.9c-1.1,0.1-1.9,1-1.8,2.1c0.1,1.1,1,1.9,2.1,1.8c1-0.1,1.8-0.9,1.8-2c0,0,0-0.1,0-0.1
			C467.5-815.1,466.5-815.9,465.5-815.9"/>
	</defs>
	<clipPath id="SVGID_42_">
		<use xlink:href="#SVGID_41_"  style="overflow:visible;"/>
	</clipPath>
	<g class="st21">
		<defs>
			<rect id="SVGID_43_" x="80" y="-1595" width="1440" height="3891"/>
		</defs>
		<clipPath id="SVGID_44_">
			<use xlink:href="#SVGID_43_"  style="overflow:visible;"/>
		</clipPath>
		<rect x="458.6" y="-820.9" class="st22" width="13.9" height="13.9"/>
	</g>
</g>
<g>
	<defs>
		<path id="SVGID_45_" d="M473.1-833h-51.7c-3,0-5.4,2.4-5.4,5.4v27.5c0,3,2.4,5.4,5.4,5.4h19.7v11.6h-1.7
			c-6.2,0-11.7,4.4-13.1,10.5c-0.1,0.6,0,1.2,0.4,1.6c0.4,0.5,0.9,0.7,1.5,0.7h38.3c0.6,0,1.1-0.3,1.5-0.7c0.4-0.5,0.5-1,0.4-1.6
			c-1.4-6.1-6.9-10.5-13.1-10.5h-1.6v-11.6h19.7c3,0,5.4-2.4,5.4-5.4v-27.5C478.5-830.6,476.1-833,473.1-833z M463.7-774.1h-32.8
			c1.7-3.1,5-5.2,8.6-5.2h15.7C458.7-779.3,462-777.2,463.7-774.1z M444.9-783.1h4.8v-11.6h-4.8V-783.1z M474.7-800.1
			c0,0.9-0.7,1.6-1.6,1.6h-51.7c-0.9,0-1.6-0.7-1.6-1.6v-27.5c0-0.9,0.7-1.6,1.6-1.6h51.7c0.9,0,1.6,0.7,1.6,1.6V-800.1z"/>
	</defs>
	<clipPath id="SVGID_46_">
		<use xlink:href="#SVGID_45_"  style="overflow:visible;"/>
	</clipPath>
	<g class="st23">
		<defs>
			<rect id="SVGID_47_" x="80" y="-1595" width="1440" height="3891"/>
		</defs>
		<clipPath id="SVGID_48_">
			<use xlink:href="#SVGID_47_"  style="overflow:visible;"/>
		</clipPath>
		<rect x="411" y="-838" class="st24" width="72.5" height="72.7"/>
	</g>
</g>
<g>
	<g>
		<defs>
			<rect id="SVGID_49_" x="728" y="237" width="144" height="144"/>
		</defs>
		<defs>
			<path id="SVGID_50_" d="M808.2,285c-2.5,0-4.4-2-4.4-4.4c0-2.5,2-4.4,4.4-4.4c2.5,0,4.4,2,4.4,4.4C812.6,283,810.6,285,808.2,285
				 M808.2,267.5c-7.2,0-13.1,5.9-13.1,13.1c0,7.2,5.9,13.1,13.1,13.1c7.2,0,13.1-5.9,13.1-13.1
				C821.3,273.3,815.4,267.5,808.2,267.5"/>
		</defs>
		<clipPath id="SVGID_51_">
			<use xlink:href="#SVGID_49_"  style="overflow:visible;"/>
		</clipPath>
		<clipPath id="SVGID_52_" class="st25">
			<use xlink:href="#SVGID_50_"  style="overflow:visible;"/>
		</clipPath>
		<rect x="783.6" y="256" class="st26" width="49.1" height="49.1"/>
	</g>
	<g>
		<defs>
			<rect id="SVGID_53_" x="728" y="237" width="144" height="144"/>
		</defs>
		<defs>
			<path id="SVGID_54_" d="M766.1,285c-2.5,0-4.4-2-4.4-4.4c0-2.5,2-4.4,4.4-4.4c2.5,0,4.4,2,4.4,4.4C770.6,283,768.6,285,766.1,285
				 M766.1,267.5c-7.2,0-13.1,5.9-13.1,13.1c0,7.2,5.9,13.1,13.1,13.1c7.2,0,13.1-5.9,13.1-13.1
				C779.2,273.3,773.3,267.5,766.1,267.5"/>
		</defs>
		<clipPath id="SVGID_55_">
			<use xlink:href="#SVGID_53_"  style="overflow:visible;"/>
		</clipPath>
		<clipPath id="SVGID_56_" class="st27">
			<use xlink:href="#SVGID_54_"  style="overflow:visible;"/>
		</clipPath>
		<rect x="741.6" y="256" class="st28" width="49.1" height="49.1"/>
	</g>
	<g>
		<defs>
			<rect id="SVGID_57_" x="728" y="237" width="144" height="144"/>
		</defs>
		<defs>
			<path id="SVGID_58_" d="M841,276.1c-2.5,0.1-4.3,2.3-4.2,4.7c0.1,2.5,2.3,4.3,4.7,4.2c2.4-0.1,4.2-2.1,4.2-4.5c0-0.1,0-0.2,0-0.3
				C845.6,277.9,843.5,276,841,276.1"/>
		</defs>
		<clipPath id="SVGID_59_">
			<use xlink:href="#SVGID_57_"  style="overflow:visible;"/>
		</clipPath>
		<clipPath id="SVGID_60_" class="st29">
			<use xlink:href="#SVGID_58_"  style="overflow:visible;"/>
		</clipPath>
		<rect x="825.4" y="264.7" class="st30" width="31.8" height="31.8"/>
	</g>
	<g>
		<defs>
			<rect id="SVGID_61_" x="728" y="237" width="144" height="144"/>
		</defs>
		<defs>
			<path id="SVGID_62_" d="M862.2,312.2c0,2-1.6,3.7-3.7,3.7H740.3c-2,0-3.7-1.6-3.7-3.7v-62.9c0-2,1.6-3.7,3.7-3.7h118.2
				c2,0,3.7,1.6,3.7,3.7V312.2L862.2,312.2z M794,351h10.9v-26.4H794V351L794,351z M836.9,371.6h-75c3.8-7.1,11.3-11.9,19.6-11.9
				h35.8C825.6,359.7,833.1,364.4,836.9,371.6L836.9,371.6z M858.5,237H740.3c-6.8,0-12.3,5.5-12.3,12.3v62.9
				c0,6.8,5.5,12.3,12.3,12.3h45V351h-3.8c-14.2,0-26.8,10.1-30.1,23.9c-0.3,1.3,0,2.6,0.8,3.7c0.8,1,2.1,1.6,3.4,1.6h87.4
				c1.3,0,2.6-0.6,3.4-1.6c0.8-1,1.1-2.4,0.8-3.7c-3.2-13.9-15.9-23.9-30.1-23.9h-3.8v-26.4h45c6.8,0,12.3-5.5,12.3-12.3v-62.9
				C870.9,242.5,865.3,237,858.5,237L858.5,237z"/>
		</defs>
		<defs>
			<rect id="SVGID_63_" x="728" y="-222.4" width="466.3" height="603.4"/>
		</defs>
		<clipPath id="SVGID_64_">
			<use xlink:href="#SVGID_61_"  style="overflow:visible;"/>
		</clipPath>
		<clipPath id="SVGID_65_" class="st31">
			<use xlink:href="#SVGID_62_"  style="overflow:visible;"/>
		</clipPath>
		<clipPath id="SVGID_66_" class="st32">
			<use xlink:href="#SVGID_63_"  style="overflow:visible;"/>
		</clipPath>
		<rect x="716.6" y="225.6" class="st33" width="165.7" height="166.1"/>
	</g>
</g>
<g>
	<path d="M664.2,447.7c-0.4,0-0.7-0.2-0.7-0.6v-2.7c0-0.4,0.2-0.6,0.7-0.6h4v-29.5h-4c-0.4,0-0.7-0.2-0.7-0.6V411
		c0-0.4,0.2-0.6,0.7-0.6h26.7c0.4,0,0.7,0.2,0.7,0.6v8.4c0,0.4-0.3,0.7-0.7,0.7H688c-0.4,0-0.6-0.3-0.6-0.7v-5.1h-14.8v12.9h12.2
		c0.5,0,0.7,0.2,0.7,0.6v2.7c0,0.4-0.3,0.6-0.7,0.6h-12.2v12.7h5.9c0.4,0,0.6,0.2,0.6,0.6v2.7c0,0.4-0.2,0.6-0.6,0.6H664.2z"/>
	<path d="M695.5,447.7c-0.4,0-0.7-0.2-0.7-0.6v-2.2c0-0.4,0.3-0.6,0.7-0.6h2.9v-18.6h-2.9c-0.4,0-0.7-0.2-0.7-0.6v-2.2
		c0-0.4,0.3-0.6,0.7-0.6h6.6c0.4,0,0.6,0.2,0.6,0.6v21.5h2.8c0.4,0,0.7,0.2,0.7,0.6v2.2c0,0.4-0.3,0.6-0.7,0.6H695.5z M700.4,419.4
		c-1.6,0-2.9-1.2-2.9-2.9s1.3-3,2.9-3s2.9,1.4,2.9,3S702.1,419.4,700.4,419.4z"/>
	<path d="M710.7,447.7c-0.4,0-0.7-0.2-0.7-0.6v-2.2c0-0.4,0.3-0.6,0.7-0.6h2.9v-30.4h-2.9c-0.4,0-0.7-0.2-0.7-0.6V411
		c0-0.4,0.3-0.6,0.7-0.6h5.8c1,0,1.4,0.4,1.4,1.3v32.6h2.8c0.4,0,0.7,0.2,0.7,0.6v2.2c0,0.4-0.3,0.6-0.7,0.6H710.7z"/>
	<path d="M726.1,447.7c-0.4,0-0.7-0.2-0.7-0.6v-2.2c0-0.4,0.3-0.6,0.7-0.6h2.9v-18.6h-3c-0.4,0-0.7-0.2-0.7-0.6v-2.2
		c0-0.4,0.3-0.6,0.7-0.6h3v-3.2c0-5.9,3.2-8.8,8.4-8.8c3.1,0,4.8,1.7,5.3,2.1c0.4,0.3,0.4,0.6,0.2,0.9l-1.2,1.6
		c-0.3,0.3-0.6,0.4-0.9,0.1c-0.3-0.2-1.3-1-2.9-1c-2.8,0-4.5,1.8-4.5,5.2v3.2h6.7c0.4,0,0.7,0.2,0.7,0.6v2.2c0,0.4-0.3,0.6-0.7,0.6
		h-6.7v18.6h4.6c0.4,0,0.6,0.2,0.6,0.6v2.2c0,0.4-0.2,0.6-0.6,0.6H726.1z"/>
	<path d="M743.8,434.8c0-8.2,5.8-13.1,13-13.1s12.9,4.9,12.9,13.1s-5.5,13.3-12.9,13.3C749.4,448.1,743.8,443,743.8,434.8z
		 M765.4,434.9c0-5.9-4.1-9.5-8.6-9.5c-4.5,0-8.6,3.5-8.6,9.5c0,5.9,4,9.6,8.6,9.6C761.4,444.5,765.4,440.8,765.4,434.9z"/>
	<path d="M774.2,447.7c-0.4,0-0.7-0.2-0.7-0.6v-2.2c0-0.4,0.3-0.6,0.7-0.6h2.9v-18.6h-2.9c-0.4,0-0.7-0.2-0.7-0.6v-2.2
		c0-0.4,0.3-0.6,0.7-0.6h6.1c0.4,0,0.7,0.2,0.7,0.6v6.5h0.2c0,0,1.7-7.2,11.1-7.2c0.4,0,0.7,0.3,0.7,0.7v2.8c0,0.4-0.3,0.7-0.7,0.7
		h-1.1c-6.3,0-9.8,4.9-9.8,9.4v8.7h2.8c0.4,0,0.7,0.2,0.7,0.6v2.2c0,0.4-0.3,0.6-0.7,0.6H774.2z"/>
	<path d="M834.3,447.7c-1.6,0-2.3-0.6-2.3-2.2v-13.7c0-3.9-1.8-6.3-5.7-6.3s-5.7,2.4-6.4,3.6c0.2,0.6,0.3,1.4,0.3,2.1v13.1h2.9
		c0.4,0,0.6,0.2,0.6,0.6v2.2c0,0.4-0.3,0.6-0.6,0.6h-9.9c-0.4,0-0.7-0.2-0.7-0.6v-2.2c0-0.4,0.3-0.6,0.7-0.6h2.8v-12.4
		c0-3.9-1.9-6.3-5.7-6.3c-5.3,0-6.9,4.5-6.9,4.5v14.2h2.5c0.4,0,0.6,0.2,0.6,0.6v2.2c0,0.4-0.3,0.6-0.6,0.6h-9.7
		c-0.4,0-0.7-0.2-0.7-0.6v-2.2c0-0.4,0.3-0.6,0.7-0.6h2.9v-18.6h-2.9c-0.4,0-0.7-0.2-0.7-0.6v-2.2c0-0.4,0.3-0.6,0.7-0.6h5.1
		c1.1,0,1.7,0.3,1.7,1.6l-0.1,2.6h0.2c0.6-1,2.8-4.5,8.4-4.5c3.7,0,6.4,1.6,7.7,4.3c0.8-1.1,3-4.3,8.4-4.3c5.6,0,8.8,3.6,8.8,9
		l0.1,13.4h2.9c0.4,0,0.7,0.2,0.7,0.6v2.2c0,0.4-0.3,0.6-0.7,0.6H834.3z"/>
	<path d="M864.4,447.7c-1.5,0-2.2-0.6-2.2-2.2v-2.7H862c-0.9,1.3-3.8,5.3-10.1,5.3c-4.8,0-8.5-2.7-8.5-7.2c0-5.9,5.7-8.3,13.9-8.3
		h4.4V432c0-4.9-2.8-6.5-6.8-6.5c-5.5,0-7.6,2.4-7.9,2.4c-0.3,0.1-0.6,0.1-0.8-0.2l-1.5-1.8c-0.3-0.3-0.2-0.6,0.1-0.8
		c0.3-0.3,3.1-3.3,10.1-3.3c6.7,0,10.9,2.8,10.9,10.4v12.1h2.9c0.4,0,0.6,0.2,0.6,0.6v2.2c0,0.4-0.2,0.6-0.6,0.6H864.4z
		 M861.6,435.8h-4.1c-5.4,0-9.7,0.7-9.7,4.6c0,2.3,2.1,4.1,5.4,4.1c4.4,0,7.3-2.9,8.5-4.5V435.8z"/>
	<path d="M889.4,445.1c0.3,0.3,0.2,0.7-0.1,1c-0.5,0.4-2.2,2-5.3,2c-5.2,0-8.4-3-8.4-8.8v-13.6h-2.9c-0.4,0-0.7-0.3-0.7-0.7v-2.1
		c0-0.4,0.3-0.7,0.7-0.7h2.9v-5.3c0-0.4,0.3-0.7,0.7-0.7h2.9c0.4,0,0.7,0.3,0.7,0.7v5.3h6.6c0.4,0,0.7,0.3,0.7,0.7v2.1
		c0,0.4-0.3,0.7-0.7,0.7H880v13.5c0,3.5,1.7,5.3,4.5,5.3c1.6,0,2.5-0.8,2.8-1c0.4-0.3,0.7-0.3,0.9,0.1L889.4,445.1z"/>
	<path d="M895.6,435.5c0.3,6.1,4.5,9,8.6,9c4.5,0,7.5-2.8,8.3-4c0.3-0.4,0.6-0.4,0.9-0.2l1.4,1.4c0.4,0.3,0.4,0.6,0.2,0.9
		c-0.7,1.1-4.2,5.5-11.1,5.5c-7,0-12.8-4.9-12.8-13.3c0-8.4,6-13.1,12.3-13.1c7.4,0,11.8,4.9,11.6,13c0,0.4-0.3,0.7-0.7,0.7H895.6z
		 M910.7,432.3c-0.2-4.2-2.7-7.1-7.2-7.1c-3.6,0-7.2,2.1-7.9,7.1H910.7z"/>
	<path d="M919.8,447.7c-0.4,0-0.7-0.2-0.7-0.6v-2.2c0-0.4,0.3-0.6,0.7-0.6h2.9v-18.6h-2.9c-0.4,0-0.7-0.2-0.7-0.6v-2.2
		c0-0.4,0.3-0.6,0.7-0.6h6.1c0.4,0,0.7,0.2,0.7,0.6v6.5h0.2c0,0,1.7-7.2,11.1-7.2c0.4,0,0.7,0.3,0.7,0.7v2.8c0,0.4-0.3,0.7-0.7,0.7
		h-1.1c-6.3,0-9.8,4.9-9.8,9.4v8.7h2.8c0.4,0,0.7,0.2,0.7,0.6v2.2c0,0.4-0.3,0.6-0.7,0.6H919.8z"/>
</g>
</svg>
