<?xml version="1.0" encoding="utf-8"?>
<!-- Generator: Adobe Illustrator 21.1.0, SVG Export Plug-In . SVG Version: 6.00 Build 0)  -->
<svg version="1.1" id="Layer_1" xmlns="http://www.w3.org/2000/svg" xmlns:xlink="http://www.w3.org/1999/xlink" x="0px" y="0px"
	 viewBox="0 0 206.7 54.9" style="enable-background:new 0 0 206.7 54.9;" xml:space="preserve">
<style type="text/css">
	.st0{fill:#F37021;}
</style>
<path class="st0" d="M145.7,19.3c-1.3,3.3-2.9,7.5-4.5,11.5c-2.6,6.5-5.1,13.2-5.8,14.8c-0.7-1.5-3.6-8.3-6.5-14.8
	c-1.9-4.1-3.6-8.4-5.1-11.5h-8.2l5.1,11.5l8.9,20.2c0.7,1.4,2.2,3.8,5.7,3.9c1.6,0.1,4.5-0.3,5.9-3.7l8-20.4l4.5-11.5H145.7z"/>
<path class="st0" d="M105.2,30.8v6.9c0,5.3-4.3,9.6-9.5,9.6c-5.3,0-9.6-4.3-9.6-9.6v-6.9V19.3h-7.5v11.5v6.9c0,9.4,7.6,17.1,17,17.1
	c9.4,0,17-7.7,17-17.1v-6.9V19.3h-7.5V30.8z"/>
<path class="st0" d="M17.9,18.8c-3.9,0-7.5,1.3-10.4,3.4V0H0v30.8v6c0,9.9,8,18,17.9,18c9.9,0,17.9-8.1,17.9-18c0-2.1-0.4-4.1-1-6
	C32.3,23.8,25.7,18.8,17.9,18.8z M17.9,47.3c-5.7,0-10.4-4.7-10.4-10.5c0-2.2,0.7-4.3,1.9-6c1.9-2.7,5-4.5,8.5-4.5
	c3.5,0,6.7,1.8,8.6,4.5c1.2,1.7,1.9,3.8,1.9,6C28.3,42.6,23.7,47.3,17.9,47.3z"/>
<path class="st0" d="M57,18.7c-7.8,0-14.5,5.1-16.9,12.1c-0.6,1.8-1,3.8-1,5.9c0,9.9,8,18,17.9,18c9.9,0,17.9-8.1,17.9-18
	c0-2.1-0.4-4-1-5.9C71.5,23.8,64.8,18.7,57,18.7z M57,47.2c-5.7,0-10.4-4.7-10.4-10.5c0-2.2,0.7-4.2,1.8-5.9c1.9-2.8,5-4.6,8.6-4.6
	c3.6,0,6.8,1.8,8.6,4.6c1.1,1.7,1.8,3.7,1.8,5.9C67.4,42.5,62.8,47.2,57,47.2z"/>
<path class="st0" d="M171.3,47.3c-5.7,0-10.4-4.7-10.4-10.5c0-2.2,0.7-4.3,1.9-6c1.9-2.7,5-4.5,8.5-4.5c2.5,0,4.9,0.9,6.7,2.5l0,0
	l-3.5,2l-4.9,2.8l0,0c-1.8,1-2.4,3.3-1.4,5.1c1,1.8,3.3,2.4,5.1,1.4l12.3-7l0,0c0.9-0.5,1.5-1.3,1.7-2.2c0.3-0.9,0.2-2-0.4-2.9
	c-0.6-1.1-1.4-2.1-2.2-3l0,0c-3.3-3.7-8-6.1-13.4-6.1c-7.8,0-14.4,5-16.9,12c-0.7,1.9-1,3.9-1,6c0,9.9,8,18,17.9,18
	c7.4,0,13.8-4.6,16.5-11l-6.9-3C179.4,44.6,175.7,47.3,171.3,47.3z"/>
<path class="st0" d="M199.7,0.1h-7.5v30.7v10.3c0,7.5,6.1,13.6,13.5,13.7c0,0,0,0,0.1,0h0c0,0,0,0,0.1,0c0,0,0,0,0,0h0.8v-7.5h-0.8
	c-3.4,0-6.2-2.8-6.2-6.3V30.8v-4h7.1v-7.5h-7.1V0.1z"/>
</svg>
