<?xml version="1.0" encoding="utf-8"?>
<!-- Generator: Adobe Illustrator 21.1.0, SVG Export Plug-In . SVG Version: 6.00 Build 0)  -->
<svg version="1.1" id="Layer_1" xmlns="http://www.w3.org/2000/svg" xmlns:xlink="http://www.w3.org/1999/xlink" x="0px" y="0px"
	 viewBox="0 0 561 571" style="enable-background:new 0 0 561 571;" xml:space="preserve">
<style type="text/css">
	.st0{fill:#009FFF;}
	.st1{fill:#FFFFFF;}
</style>
<rect y="0.1" class="st0" width="561" height="570.8"/>
<path class="st1" d="M199.8,306.1v-30.6l-13.6,18.3h-1.6l-13.4-18.3v30.6h-8V264h9.1l13.3,18.2l13.1-18.2h9v42.1H199.8L199.8,306.1z
	 M217.8,306.1V264h7.8v42.1H217.8L217.8,306.1z M262.7,306.1h-25.9V264h8v34.8h21.5L262.7,306.1L262.7,306.1z M299.1,306.1h-25.9
	V264h8v34.8h21.7L299.1,306.1L299.1,306.1z M344.1,264v24.2c0,12.4-7.6,18.8-18.2,18.8c-10.1,0-18.8-6.2-18.8-18.8v-24.1h8v24.1
	c0,7.6,4.3,11.8,10.9,11.8c6.6,0,10.2-4.5,10.2-11.8v-24.1L344.1,264L344.1,264z M389.7,306.1v-30.6L376,293.9h-1.6l-13.5-18.4v30.6
	h-7.8V264h9.1l13.2,18.2l13.2-18.2h9.1v42.1H389.7L389.7,306.1z"/>
</svg>
