<?xml version="1.0" encoding="utf-8"?>
<!-- Generator: Adobe Illustrator 21.1.0, SVG Export Plug-In . SVG Version: 6.00 Build 0)  -->
<svg version="1.1" id="Layer_1" xmlns="http://www.w3.org/2000/svg" xmlns:xlink="http://www.w3.org/1999/xlink" x="0px" y="0px"
	 viewBox="0 0 1309 571" style="enable-background:new 0 0 1309 571;" xml:space="preserve">
<style type="text/css">
	.st0{fill:#009FFF;}
	.st1{fill:#FFFFFF;}
</style>
<rect x="0.2" y="-0.2" class="st0" width="1309" height="570.8"/>
<path class="st1" d="M517.7,304.7v-51.2l-22.8,30.7h-2.6l-22.4-30.7v51.2h-13.4v-70.5h15.2l22.2,30.4l22-30.4H531v70.5H517.7
	L517.7,304.7z M547.7,304.7v-70.5h13v70.5H547.7L547.7,304.7z M623,304.7h-43.4v-70.5H593v58.2h36L623,304.7L623,304.7z
	 M683.9,304.7h-43.4l0-70.5h13.4v58.2h36.4L683.9,304.7L683.9,304.7z M759.2,234.2l0,40.5c0,20.8-12.8,31.5-30.5,31.5
	c-16.9,0-31.4-10.3-31.4-31.5v-40.4h13.4v40.4c0,12.7,7.2,19.7,18.2,19.7c11,0,17.1-7.6,17.1-19.7v-40.4H759.2L759.2,234.2z
	 M835.6,304.7v-51.2l-23,30.8H810l-22.6-30.8v51.2h-13v-70.5h15.2l22.1,30.4l22.1-30.4H849v70.5H835.6L835.6,304.7z"/>
</svg>
